<?xml version="1.0" standalone="no"?>
<!DOCTYPE svg PUBLIC "-//W3C//DTD SVG 20010904//EN"
 "http://www.w3.org/TR/2001/REC-SVG-20010904/DTD/svg10.dtd">
<svg version="1.0" xmlns="http://www.w3.org/2000/svg"
 width="1024.000000pt" height="1024.000000pt" viewBox="0 0 1024.000000 1024.000000"
 preserveAspectRatio="xMidYMid meet">
<metadata>
Created by potrace 1.14, written by Peter Selinger 2001-2017
</metadata>
<g transform="translate(0.000000,1024.000000) scale(0.100000,-0.100000)"
fill="#000000" stroke="none">
<path d="M0 5120 l0 -5120 5120 0 5120 0 0 5120 0 5120 -5120 0 -5120 0 0
-5120z m5092 4646 c33 -14 47 -33 67 -88 7 -17 7 -29 1 -33 -6 -4 -10 -1 -10
6 0 7 -3 9 -6 6 -4 -4 -1 -14 7 -24 8 -9 9 -14 2 -10 -6 4 -14 3 -18 -3 -3 -5
-1 -10 5 -10 6 0 8 -5 5 -10 -4 -6 -11 -8 -16 -5 -5 4 -9 -1 -9 -10 0 -9 -4
-13 -10 -10 -5 3 -10 1 -10 -4 0 -6 -9 -11 -20 -11 -21 0 -21 -2 -20 -761 1
-798 1 -811 -40 -774 -15 14 -16 70 -12 759 l5 743 -24 6 c-13 4 -39 21 -57
38 -30 28 -33 36 -27 66 4 22 3 33 -3 29 -19 -12 0 33 27 63 45 50 100 63 163
37z m-238 -315 c44 -39 59 -111 30 -147 -8 -10 -12 -12 -8 -4 4 8 -3 5 -15 -7
-12 -13 -26 -23 -32 -23 -6 0 -9 -166 -7 -474 l3 -474 28 -26 c26 -24 27 -28
28 -143 0 -65 2 -140 5 -168 4 -60 -16 -91 -49 -74 -19 11 -20 18 -14 168 6
155 5 158 -18 187 -21 26 -24 39 -25 116 0 48 -4 90 -10 93 -5 3 -32 3 -60 -1
l-50 -7 1 -136 c0 -75 4 -207 7 -293 7 -155 7 -157 35 -186 20 -21 27 -36 23
-50 -11 -35 -34 -33 -77 5 l-40 36 4 383 c2 211 6 386 9 389 3 3 38 9 77 12
l71 6 0 313 -1 313 -30 6 c-33 7 -69 55 -69 91 0 38 29 93 58 108 33 18 99 11
126 -13z m492 0 c18 -12 18 -12 0 -7 -16 6 -17 4 -6 -9 7 -8 16 -12 21 -9 5 3
9 2 8 -3 -1 -4 -1 -17 0 -28 1 -17 3 -18 11 -5 8 13 10 12 11 -5 3 -37 -3 -50
-34 -85 -19 -21 -22 -27 -8 -15 l24 20 -12 -22 c-15 -30 -32 -38 -42 -22 -4 7
-11 10 -16 5 -4 -4 -9 -151 -12 -327 l-3 -319 76 0 76 0 0 -237 c1 -239 8
-498 15 -519 2 -6 -14 -28 -35 -49 -44 -43 -83 -46 -88 -7 -4 25 34 76 49 66
5 -3 9 66 9 153 0 87 3 222 7 301 l6 142 -56 0 -57 0 0 -74 c0 -67 -3 -76 -31
-112 l-31 -39 6 -162 c6 -159 6 -162 -15 -168 -38 -13 -43 6 -40 182 2 167 2
167 30 199 l28 31 6 451 c3 248 3 461 0 472 -3 11 -12 20 -19 20 -8 0 -23 15
-34 33 -21 34 -26 52 -12 43 5 -3 9 1 9 9 0 8 -4 12 -9 9 -13 -8 -9 14 7 47 9
17 21 27 27 23 6 -4 8 -3 5 3 -9 14 19 37 33 28 5 -3 10 -2 10 3 0 12 59 0 86
-17z m-2098 -272 c81 -77 148 -144 150 -150 2 -5 -3 -12 -12 -15 -18 -7 -41
12 -209 173 -72 68 -107 109 -103 118 3 8 10 15 16 15 6 0 77 -63 158 -141z
m3739 125 c3 -10 -267 -285 -288 -292 -5 -2 -17 2 -25 9 -14 12 2 31 132 156
137 132 171 156 181 127z m-3326 -43 c38 -39 38 -78 1 -114 -48 -46 -112 -32
-138 28 -36 88 69 154 137 86z m2850 0 c37 -38 39 -82 4 -116 -33 -34 -87 -34
-122 1 -22 22 -25 32 -20 67 10 76 84 102 138 48z m-639 -21 c4 0 7 -3 6 -7
-1 -5 3 -17 9 -29 10 -17 8 -27 -13 -57 -21 -31 -31 -37 -60 -37 -19 0 -44 4
-54 10 -15 8 -28 0 -75 -48 l-56 -57 7 -470 c4 -258 9 -535 11 -615 2 -79 2
-153 -1 -165 -6 -19 -55 -76 -108 -123 -22 -20 -30 -22 -47 -13 -36 19 -25 47
39 98 l61 48 -4 632 -4 632 69 68 c38 38 68 76 68 88 1 31 23 53 66 67 35 12
41 11 58 -4 11 -10 23 -18 28 -18z m-2743 -143 l172 -167 -1 -227 -1 -227 46
-43 c32 -30 54 -43 75 -43 30 0 90 -50 90 -76 0 -8 4 -14 9 -14 6 0 63 -50
128 -110 65 -61 127 -113 138 -116 11 -3 71 -3 134 -2 l113 3 -1 140 -1 140
-195 190 -196 190 1 161 c0 160 5 184 37 184 10 0 13 -41 15 -172 l3 -172 193
-179 192 -179 0 -448 0 -448 82 -76 c76 -71 81 -77 70 -101 -6 -14 -16 -25
-22 -25 -13 0 -139 126 -162 162 -16 24 -18 58 -18 308 l0 280 -139 0 -139 0
-122 115 -123 115 -14 -27 c-20 -39 -43 -52 -89 -53 -61 0 -94 36 -94 102 0
34 6 55 19 69 18 20 18 21 -30 66 l-49 46 -1 231 0 231 -169 159 c-158 150
-191 193 -140 184 10 -2 95 -78 189 -171z m850 74 l101 -93 0 -73 0 -73 94
-89 94 -88 6 -560 c4 -308 7 -568 8 -578 1 -9 23 -32 48 -49 61 -42 86 -76 73
-97 -19 -30 -39 -22 -107 42 l-68 64 1 574 2 574 -95 90 -96 90 -2 60 c0 33
-1 66 -1 72 1 14 -13 30 -115 126 -68 65 -81 85 -65 101 10 10 14 8 122 -93z
m339 77 c6 -6 12 -22 12 -37 0 -20 19 -44 77 -98 l76 -71 -5 -626 -6 -627 59
-65 c51 -55 58 -68 49 -84 -6 -11 -16 -20 -23 -20 -7 0 -40 28 -74 63 l-62 62
1 180 c1 99 3 387 5 641 l3 461 -54 51 c-56 53 -70 60 -81 42 -9 -15 -68 -12
-92 5 -24 17 -35 71 -18 88 6 7 14 20 18 30 4 10 11 15 17 12 5 -3 10 -2 10 2
0 12 71 4 88 -9z m2829 2 c1 -8 -73 -84 -163 -169 l-164 -154 0 -235 0 -236
-42 -43 c-31 -31 -39 -45 -31 -55 21 -26 24 -75 8 -113 -20 -50 -41 -64 -91
-65 -32 0 -48 6 -68 26 -14 15 -26 31 -26 35 0 20 -26 7 -59 -29 -20 -21 -71
-71 -113 -110 l-77 -72 -140 0 -141 0 -1 -232 c-1 -128 0 -263 1 -299 l2 -66
-82 -74 c-45 -41 -86 -76 -91 -77 -13 -5 -39 18 -39 34 0 17 57 74 115 114
l45 31 0 458 0 458 194 184 194 184 1 161 c1 88 4 164 8 167 3 4 12 2 20 -4
10 -9 13 -51 13 -179 l0 -168 -190 -183 -190 -182 0 -137 0 -137 31 -7 c17 -3
76 -6 130 -6 l98 0 83 78 c93 87 164 161 203 210 24 28 33 32 76 32 27 0 49 3
49 8 0 4 13 21 29 37 l28 31 7 239 7 240 167 162 c157 152 194 179 199 143z
m-938 -3 c9 -11 -9 -32 -84 -101 l-95 -88 0 -75 0 -75 -96 -91 -96 -92 3 -578
4 -579 -40 -35 c-65 -56 -113 -86 -130 -79 -28 10 -16 46 27 84 23 20 52 47
65 59 l23 22 0 562 0 562 95 90 95 91 0 70 0 71 99 97 c54 54 103 98 109 98 5
0 15 -6 21 -13z m-3679 -336 l25 1 -25 8 c-22 7 -20 8 15 9 45 1 75 -12 55
-24 -8 -5 -2 -13 19 -26 60 -36 87 -110 65 -174 -12 -37 -12 -39 14 -59 15
-11 86 -76 157 -145 72 -70 175 -169 230 -221 55 -52 130 -123 166 -158 59
-56 73 -65 125 -75 l59 -12 5 -98 c5 -95 6 -98 35 -116 60 -38 445 -407 445
-428 0 -45 -40 -15 -247 186 -120 116 -220 211 -223 211 -3 0 -14 -12 -24 -27
l-19 -26 134 -131 c167 -162 368 -350 434 -406 28 -24 53 -48 58 -56 10 -18
-2 -44 -22 -44 -10 0 -163 144 -341 320 l-324 319 26 28 c25 26 27 36 30 126
l3 97 -40 0 c-44 1 -43 0 -270 219 -55 53 -139 132 -185 176 -47 44 -122 116
-167 159 -64 62 -86 77 -100 70 -22 -10 -35 -12 -100 -20 -66 -8 -101 6 -149
58 -34 38 -35 43 -32 99 2 35 -1 59 -7 60 -5 0 -3 3 5 6 8 3 36 25 62 49 26
24 52 44 58 44 6 0 8 6 4 13 -6 10 -4 10 7 0 7 -7 24 -13 39 -12z m-80 -6 c-7
-8 -18 -15 -24 -15 -6 0 -2 7 8 15 25 19 32 19 16 0z m5164 -5 c56 -44 87 -80
96 -111 19 -64 -9 -135 -70 -175 -53 -35 -131 -37 -185 -5 l-37 22 -91 -88
c-51 -49 -132 -126 -182 -173 -49 -47 -157 -151 -240 -232 -139 -137 -153
-148 -187 -148 l-38 0 0 -104 c0 -102 1 -105 28 -125 l27 -21 -123 -120 c-67
-66 -123 -120 -125 -120 -13 0 -325 -315 -320 -323 3 -5 2 -7 -4 -4 -6 4 -25
-12 -42 -34 -26 -32 -39 -39 -59 -37 -20 2 -28 9 -30 28 -2 21 9 35 67 81 63
49 479 437 540 503 24 25 24 26 6 46 -10 11 -23 20 -29 20 -11 0 -72 -58 -312
-291 -97 -93 -135 -124 -143 -116 -23 23 -7 47 102 148 61 57 159 149 217 205
58 56 115 107 128 113 20 11 22 19 22 94 0 51 5 88 12 95 7 7 33 12 59 12 42
0 50 4 85 43 33 37 198 195 526 507 43 42 81 73 84 71 3 -3 0 7 -6 23 -14 37
-18 126 -6 118 5 -3 7 5 4 16 -4 12 -1 25 4 29 7 4 8 1 3 -7 -5 -9 -4 -11 4
-6 6 4 10 15 9 24 -2 9 4 17 12 17 8 1 14 7 12 14 -1 7 2 10 8 6 5 -3 18 -1
27 5 17 11 17 11 0 6 -10 -3 -16 -2 -13 2 9 14 140 8 160 -8z m-4934 -45 c7
-8 9 -15 6 -15 -4 0 -14 7 -22 15 -9 8 -11 15 -6 15 5 0 15 -7 22 -15z m-443
-280 c70 -66 181 -172 248 -235 66 -63 181 -171 255 -240 74 -68 218 -203 320
-300 102 -96 225 -213 275 -260 49 -46 151 -143 226 -215 161 -154 196 -185
215 -185 8 0 14 -6 14 -14 0 -8 27 -37 60 -66 33 -29 60 -58 60 -64 0 -7 -9
-21 -20 -31 -19 -17 -21 -17 -57 15 -40 35 -106 101 -189 190 -65 71 -253 252
-474 460 -96 90 -249 234 -340 320 -91 86 -240 226 -331 312 -187 176 -184
172 -300 284 -123 119 -124 121 -109 139 7 9 14 14 16 13 2 -2 61 -57 131
-123z m5763 100 c0 -7 -73 -81 -162 -166 -90 -85 -215 -203 -278 -264 -63 -61
-178 -169 -255 -240 -77 -71 -185 -173 -240 -226 -55 -52 -219 -208 -365 -345
-268 -251 -317 -302 -312 -316 1 -4 -2 -7 -6 -6 -5 2 -42 -32 -82 -74 -73 -78
-102 -92 -128 -66 -7 7 -12 17 -12 23 0 7 73 77 163 156 165 146 192 171 514
480 408 389 670 636 1026 966 101 93 137 114 137 78z m-4351 -264 c105 -101
191 -190 191 -197 0 -28 -23 -24 -63 12 -23 20 -113 107 -200 191 -108 105
-157 159 -153 169 3 9 12 14 20 12 7 -2 100 -86 205 -187z m2998 174 c5 -15
-395 -398 -407 -390 -5 3 -10 11 -10 18 0 18 383 387 399 384 8 -1 16 -7 18
-12z m-4413 -247 c110 -106 275 -265 366 -354 91 -89 186 -181 211 -205 25
-24 104 -100 175 -169 235 -228 498 -476 549 -520 136 -116 235 -216 235 -237
0 -24 -31 -39 -53 -26 -7 4 -70 70 -140 145 -70 75 -142 149 -160 163 -18 15
-106 98 -197 184 -91 87 -184 174 -207 195 -24 21 -41 42 -38 46 3 5 0 12 -6
16 -8 4 -9 3 -5 -4 12 -19 1 -14 -20 10 -13 14 -14 19 -4 14 8 -4 6 0 -4 8
-11 9 -26 16 -34 16 -7 0 -10 5 -7 10 3 6 -1 10 -9 10 -8 0 -21 8 -28 18 -7
10 -121 122 -253 248 -468 447 -609 589 -602 607 3 9 12 17 18 17 6 0 102 -86
213 -192z m5836 177 c10 -13 1 -26 -61 -86 -41 -39 -155 -150 -254 -247 -99
-98 -216 -210 -260 -250 -44 -41 -132 -124 -195 -186 -142 -138 -281 -270
-470 -446 -80 -74 -192 -184 -250 -245 -222 -232 -225 -235 -251 -221 -13 6
-25 19 -27 29 -4 18 115 136 203 202 28 21 104 90 170 155 100 97 268 256 311
295 19 17 172 163 319 305 621 599 737 710 746 710 4 0 12 -7 19 -15z m-6380
-130 c7 -8 9 -15 4 -16 -5 0 2 -5 15 -10 17 -7 22 -15 18 -29 -3 -11 -1 -18 4
-14 5 3 9 -15 9 -41 0 -54 -2 -52 210 -246 80 -73 163 -150 185 -171 22 -21
43 -38 48 -38 4 0 7 -30 7 -68 l0 -67 58 -56 c31 -30 122 -115 202 -189 80
-74 212 -199 294 -278 l148 -144 -1 -58 -1 -58 98 -88 c53 -49 99 -91 102 -94
4 -4 48 -41 148 -126 12 -10 28 -19 35 -19 7 -1 11 -6 10 -11 -1 -6 16 -28 38
-49 46 -46 50 -72 12 -81 -23 -6 -33 0 -74 47 -27 30 -53 53 -59 51 -5 -1 -9
4 -8 10 2 7 -3 12 -10 10 -6 -1 -11 4 -10 10 2 7 -4 11 -12 10 -8 -2 -12 0 -8
4 11 10 -12 35 -25 27 -5 -3 -7 -1 -3 5 5 9 -198 210 -252 248 -19 13 -22 25
-22 77 l-1 62 -247 236 c-333 318 -411 391 -433 407 -15 10 -19 26 -19 76 l0
63 -67 65 c-280 266 -363 339 -377 330 -6 -3 -36 -8 -67 -9 -46 -2 -64 2 -92
21 -20 14 -37 23 -39 21 -2 -2 -4 4 -5 13 -1 9 -5 36 -9 60 -4 29 -3 42 5 42
6 0 11 5 11 10 0 6 12 21 26 34 30 25 92 33 124 16 12 -6 20 -7 20 -1 0 5 -6
12 -12 14 -8 4 -9 6 -2 6 6 1 17 -6 24 -14z m6840 -2 c33 -19 60 -68 60 -108
0 -17 -11 -37 -32 -56 -18 -16 -29 -29 -24 -29 5 0 3 -6 -3 -14 -22 -26 -87
-30 -125 -8 -32 19 -35 19 -59 3 -14 -9 -113 -99 -221 -200 l-196 -185 0 -50
c-1 -63 -9 -76 -90 -151 -36 -33 -123 -116 -195 -186 -71 -69 -168 -162 -215
-205 -47 -44 -113 -106 -147 -138 l-61 -58 5 -53 6 -53 -234 -231 c-129 -127
-237 -231 -242 -231 -18 0 -47 21 -47 34 0 17 138 151 255 248 50 41 118 101
153 134 62 59 62 60 62 115 l0 56 98 94 c53 52 140 135 192 184 52 49 166 159
252 244 l157 155 6 61 7 62 223 208 c124 114 223 214 223 224 0 9 3 25 7 36 5
16 5 17 -4 5 -6 -8 -11 -11 -11 -6 0 4 11 22 25 38 19 23 23 34 15 43 -8 9 -8
15 0 20 6 4 10 3 9 -2 -4 -20 3 -21 30 -5 39 24 86 26 121 5z m-6438 -150
c161 -152 236 -225 1003 -969 171 -166 337 -326 370 -355 178 -161 192 -178
163 -207 -7 -7 -18 -12 -24 -12 -16 0 -106 88 -199 195 -57 64 -265 273 -466
465 -20 19 -85 82 -145 140 -149 143 -735 703 -809 772 -51 49 -57 58 -46 72
7 9 17 16 22 16 5 0 64 -53 131 -117z m6040 100 c15 -17 11 -22 -45 -72 -34
-29 -123 -112 -197 -184 -188 -183 -378 -365 -495 -476 -55 -52 -173 -166
-262 -254 -103 -100 -167 -156 -174 -151 -7 4 -9 3 -6 -3 3 -5 -37 -52 -89
-104 -53 -52 -154 -158 -226 -237 -72 -78 -138 -147 -148 -152 -24 -13 -60 14
-53 39 3 10 53 63 111 116 98 90 443 421 812 781 80 77 192 186 250 241 58 55
193 183 300 286 107 102 198 186 201 187 3 0 13 -8 21 -17z m428 -133 c0 -5
-5 -10 -11 -10 -5 0 -7 5 -4 10 3 6 8 10 11 10 2 0 4 -4 4 -10z m-135 -58 c11
-6 15 -12 8 -12 -7 0 -22 10 -35 23 -13 12 -17 17 -8 11 8 -6 24 -16 35 -22z
m-6825 -320 c25 -6 39 -23 33 -39 -4 -11 -2 -14 5 -9 7 4 15 1 18 -8 5 -14 33
-16 200 -16 l194 0 0 -89 0 -88 63 -59 c34 -31 161 -153 282 -269 121 -117
239 -229 263 -250 42 -37 42 -37 42 -109 l0 -71 139 -125 c76 -69 158 -141
182 -160 82 -64 199 -183 199 -202 0 -10 -12 -24 -26 -30 -26 -12 -31 -8 -173
137 -81 83 -195 195 -254 251 l-107 101 0 70 0 71 -172 164 c-95 90 -244 231
-330 313 l-158 148 0 74 0 73 -171 0 c-166 0 -171 -1 -203 -25 -34 -26 -65
-30 -101 -15 -11 5 -16 9 -12 9 5 1 -1 13 -12 27 -24 30 -27 71 -7 96 15 20
79 49 86 40 3 -4 12 -8 20 -10z m3595 -16 c30 -18 180 -158 380 -356 182 -179
409 -402 505 -495 96 -94 265 -258 375 -365 110 -107 265 -258 345 -335 80
-77 217 -209 305 -295 88 -85 192 -184 230 -219 39 -36 103 -96 143 -135 149
-144 171 -282 65 -405 -40 -47 -50 -49 -29 -5 32 64 41 121 28 181 -13 62 -57
136 -100 168 -21 15 -24 15 -13 2 11 -15 11 -17 -2 -17 -10 0 -13 -6 -10 -20
4 -14 0 -20 -12 -20 -14 0 -16 -5 -9 -27 4 -16 8 -73 8 -128 1 -94 -1 -104
-33 -167 -38 -77 -53 -92 -81 -85 -11 3 -22 1 -26 -4 -3 -5 -15 -14 -27 -19
-16 -8 -14 -4 7 14 17 14 32 23 36 21 13 -8 54 35 67 71 46 123 49 197 12 297
-17 44 -45 83 -116 162 -51 57 -97 105 -102 107 -5 2 -81 73 -168 158 -208
202 -1022 999 -1238 1211 -443 434 -505 491 -575 522 -50 22 -203 28 -223 8
-6 -6 -21 -11 -32 -11 -12 0 -31 -9 -43 -20 -12 -11 -26 -20 -32 -20 -6 0
-280 -267 -608 -593 -328 -325 -682 -675 -787 -777 -421 -410 -686 -674 -705
-704 -11 -18 -27 -61 -36 -95 -19 -76 -12 -143 22 -219 26 -58 68 -115 78
-105 3 4 6 1 6 -5 0 -7 -10 -12 -22 -12 -22 0 -78 64 -78 89 0 5 -9 26 -21 45
-16 27 -21 57 -24 126 -4 99 5 137 43 188 27 36 22 42 -10 12 -12 -11 -27 -20
-32 -19 -6 0 -5 3 3 6 9 4 10 8 2 12 -6 4 54 71 144 160 85 85 155 156 155
160 0 3 -28 -22 -62 -55 -35 -33 -94 -89 -133 -125 -38 -36 -98 -91 -132 -123
-85 -79 -108 -128 -108 -232 0 -79 1 -82 38 -127 20 -25 37 -48 37 -50 0 -3
-22 16 -50 41 -59 56 -79 101 -83 184 -2 53 3 72 27 121 17 32 48 74 70 94
153 135 874 835 1753 1703 601 592 562 562 728 558 90 -3 106 -6 150 -32z
m-1331 -103 c117 -112 125 -123 110 -138 -15 -15 -25 -7 -133 96 -64 62 -122
118 -130 125 -12 11 -12 16 -1 29 7 9 16 14 20 13 4 -2 64 -58 134 -125z
m2496 84 c-8 -8 -68 -64 -133 -126 -98 -94 -120 -111 -132 -101 -8 7 -15 16
-15 20 0 4 59 63 131 130 121 112 132 121 147 106 14 -14 14 -18 2 -29z m2204
28 c11 -8 17 -15 13 -15 -4 0 -1 -10 6 -22 23 -36 4 -86 -38 -104 -47 -19 -58
-18 -90 12 l-28 26 -171 -4 -170 -4 0 -69 -1 -70 -155 -150 c-85 -82 -235
-226 -333 -318 l-177 -169 0 -67 0 -68 -105 -94 c-128 -114 -225 -208 -245
-237 -8 -12 -20 -22 -26 -22 -13 0 -29 -29 -25 -45 2 -5 -1 -7 -5 -2 -10 9
-55 -33 -48 -45 3 -5 1 -7 -5 -6 -6 2 -17 -8 -24 -22 -16 -32 -48 -37 -72 -10
-13 14 -16 25 -9 38 8 16 125 125 240 222 71 61 182 159 226 200 46 44 47 46
51 115 l4 70 209 199 c115 110 264 252 332 317 l122 118 0 81 0 80 183 0 c100
0 187 4 192 8 6 4 16 19 24 34 19 36 90 49 125 23z m-3450 -237 c22 -6 55 -21
71 -31 17 -11 206 -194 420 -407 701 -694 1442 -1417 1603 -1566 34 -31 65
-72 84 -112 28 -58 30 -69 26 -145 -3 -65 -10 -90 -29 -122 -14 -22 -31 -53
-38 -70 -8 -17 -16 -24 -18 -17 -3 6 7 35 21 64 35 70 33 93 -3 37 -15 -24
-68 -82 -117 -129 -49 -47 -188 -180 -309 -295 -388 -370 -473 -452 -870 -840
-214 -209 -456 -445 -538 -525 -81 -79 -170 -160 -197 -181 -87 -65 -208 -74
-316 -25 -55 25 -102 69 -509 467 -99 96 -245 238 -325 315 -79 76 -212 204
-295 284 -241 233 -392 378 -688 660 -195 186 -280 273 -286 294 -8 25 -9 27
-10 8 -1 -26 34 -106 55 -123 8 -6 14 -17 14 -24 0 -7 132 -140 293 -296 160
-156 373 -363 472 -460 99 -97 248 -241 330 -320 83 -79 238 -229 345 -334
390 -381 516 -500 545 -515 17 -8 36 -21 43 -28 7 -6 22 -12 32 -12 10 0 21
-4 24 -8 5 -8 161 -9 181 -1 6 2 12 0 14 -6 6 -14 -85 -26 -145 -20 -97 11
-160 52 -316 202 -78 76 -183 177 -233 223 -49 46 -200 192 -335 324 -313 307
-453 442 -780 756 -449 430 -484 465 -482 473 1 4 -11 27 -26 50 -56 81 -67
116 -67 207 1 103 21 154 93 226 79 80 420 413 667 651 127 122 477 469 779
772 302 302 557 552 565 555 9 3 30 14 48 25 47 30 141 38 207 19z m-3940
-210 c22 -7 44 -17 48 -23 4 -5 8 -6 8 -1 0 5 11 -3 25 -18 l24 -26 319 0 319
0 169 -157 c292 -273 545 -513 654 -618 58 -56 128 -119 155 -140 62 -46 195
-172 195 -185 0 -14 -30 -40 -46 -40 -7 0 -132 118 -276 263 -145 145 -301
299 -348 342 -47 44 -178 171 -292 282 l-208 203 -314 0 -314 0 0 -49 c0 -29
-6 -59 -16 -72 -9 -13 -16 -27 -16 -31 0 -5 108 -8 241 -8 l240 0 215 -205
214 -205 70 0 c68 0 70 -1 122 -46 29 -26 98 -90 153 -143 114 -110 221 -210
348 -325 73 -66 88 -84 85 -105 -7 -57 -35 -38 -216 146 -97 99 -237 237 -310
306 l-133 127 -68 0 -69 0 -214 205 -213 205 -260 -4 c-143 -2 -282 -7 -309
-11 -31 -5 -63 -3 -88 6 -43 14 -104 75 -114 114 -10 40 1 111 22 142 10 16
19 30 19 33 1 12 17 30 24 26 4 -3 25 1 47 9 49 18 57 18 108 3z m7871 -22
c66 -43 103 -153 72 -213 -20 -38 -80 -91 -112 -99 -13 -3 -48 -3 -77 1 -29 3
-171 9 -315 11 l-263 5 -102 -98 c-56 -54 -152 -146 -213 -205 l-111 -108 -70
0 -70 0 -165 -157 c-242 -233 -299 -290 -299 -299 0 -12 -152 -154 -165 -154
-6 0 -16 5 -23 12 -27 27 -11 53 85 138 170 150 285 254 416 379 l127 121 67
0 c76 0 38 -29 336 255 87 82 171 154 185 158 15 4 128 5 250 1 l224 -6 -11
20 c-6 12 -14 48 -18 82 l-6 60 -313 0 -314 0 -107 -102 c-60 -57 -157 -150
-218 -208 -60 -58 -173 -166 -250 -240 -133 -127 -318 -311 -449 -448 -73 -75
-111 -99 -132 -81 -8 6 -14 19 -14 28 0 20 119 138 245 243 106 89 225 200
545 508 129 124 265 254 303 288 l67 63 331 -1 c323 -1 332 -1 346 19 40 57
151 71 218 27z m-5951 -362 c17 -14 59 -53 93 -85 34 -32 66 -59 70 -59 5 0
14 -9 21 -20 7 -12 17 -18 23 -15 5 4 8 1 7 -7 -2 -7 3 -12 9 -11 7 2 12 -3
10 -10 -1 -6 4 -11 10 -10 7 2 12 -1 10 -6 -1 -5 2 -9 6 -9 5 -1 22 -16 39
-34 17 -18 25 -24 17 -13 -13 18 -13 19 4 6 9 -7 17 -19 17 -25 0 -7 16 -25
35 -40 41 -33 47 -71 14 -81 -24 -8 -13 -18 -275 244 -137 137 -171 177 -163
188 15 17 16 17 53 -13z m3942 12 c3 -8 -22 -39 -62 -77 -91 -87 -123 -119
-237 -242 -105 -113 -132 -131 -154 -101 -7 10 -13 22 -13 27 0 10 118 125
215 210 39 33 88 77 110 97 116 106 130 115 141 86z m-5184 -295 c13 -5 97
-81 188 -169 130 -126 162 -163 153 -173 -18 -18 -48 5 -209 163 l-141 138
-361 0 -362 0 0 25 0 25 354 0 c195 0 365 -4 378 -9z m7108 -16 l0 -25 -361 0
-361 0 -142 -132 c-194 -183 -193 -181 -211 -174 -11 4 -13 11 -7 21 4 9 84
87 178 175 l169 159 368 1 367 0 0 -25z m-8081 -55 c12 -9 24 -31 27 -49 5
-31 37 -68 83 -96 10 -6 159 -10 371 -10 195 0 409 -2 475 -4 l120 -2 27 -34
c23 -27 25 -35 14 -44 -10 -8 -22 -5 -50 14 l-37 25 -462 0 -462 0 -44 35 -43
34 -32 -24 c-47 -36 -99 -34 -137 4 -20 20 -29 40 -30 63 -1 31 -1 31 -9 8 -5
-16 -8 -19 -9 -8 -1 24 20 68 30 62 5 -3 9 3 9 12 0 10 3 15 6 11 4 -3 13 1
21 9 20 19 104 16 132 -6z m8466 -5 c18 -13 35 -22 37 -19 3 2 2 -15 -2 -38
-7 -48 -21 -78 -44 -97 -9 -8 -14 -17 -11 -21 3 -5 -4 -6 -15 -3 -11 3 -20 0
-20 -6 0 -6 -11 -11 -25 -11 -14 0 -25 5 -25 11 0 5 -4 7 -10 4 -5 -3 -10 -1
-10 4 0 6 -7 11 -15 11 -8 0 -15 3 -15 8 0 4 -5 14 -10 22 -7 12 -15 8 -42
-23 l-33 -37 -509 -1 c-280 0 -511 2 -513 5 -2 2 2 13 9 25 13 21 16 21 504
21 l491 0 23 25 c13 14 29 25 35 25 7 0 13 12 13 26 0 29 45 81 76 87 52 10
81 6 111 -18z m16 -158 l-24 -22 19 27 c10 14 21 24 23 22 3 -3 -6 -15 -18
-27z m-6782 -261 c6 -8 9 -20 6 -27 -4 -12 -88 -13 -506 -11 l-500 3 -35 -26
-35 -27 58 -53 58 -54 536 -1 537 0 48 -32 c51 -34 64 -59 44 -83 -20 -24 -42
-17 -88 25 l-44 40 -521 0 -522 0 -70 65 -70 64 -352 1 -353 0 -5 -23 c-7 -27
-53 -57 -87 -57 -30 0 -67 26 -78 55 -20 53 26 125 80 125 28 0 76 -26 83 -45
6 -13 50 -15 351 -15 l344 0 49 45 48 44 507 0 c408 0 509 -3 517 -13z m5991
-31 l44 -45 339 0 339 0 28 30 c59 63 160 24 160 -62 0 -85 -100 -122 -154
-57 -14 17 -26 35 -26 40 0 5 -142 9 -349 9 l-349 0 -69 -64 -69 -65 -525 -3
-525 -3 -49 -43 -49 -43 -24 25 c-31 30 -25 46 29 86 l42 30 543 0 542 0 52
44 c29 25 58 42 66 39 25 -9 15 10 -23 44 l-37 34 -505 -2 c-489 -2 -506 -1
-506 17 0 13 10 21 30 25 17 3 248 7 515 8 l485 1 45 -45z m-7154 -300 c13
-13 27 -38 31 -55 l6 -31 566 1 c311 1 574 -2 583 -5 22 -9 30 -32 18 -56 -12
-22 -50 -25 -68 -6 -17 16 -1139 24 -1155 8 -17 -17 -93 -13 -107 4 -10 12
-44 15 -194 15 l-181 -1 -20 -31 c-38 -60 -112 -59 -148 1 -24 41 -21 75 9
110 22 26 33 31 69 31 38 0 47 -4 71 -35 l26 -35 168 0 168 0 6 35 c14 70 102
100 152 50z m7379 0 c14 -13 25 -36 25 -50 l0 -25 134 0 c73 0 148 -3 165 -6
24 -5 31 -3 31 9 0 8 8 25 18 37 41 51 145 21 158 -45 12 -67 -25 -115 -89
-115 -32 0 -45 6 -71 35 l-32 35 -163 0 c-148 0 -165 -2 -188 -20 -32 -25 -59
-25 -98 -2 -28 18 -60 18 -585 14 -540 -5 -554 -5 -570 -25 -35 -43 -103 14
-73 62 9 14 68 16 597 12 l586 -4 0 27 c0 17 11 39 29 57 38 38 91 40 126 4z
m-6373 -298 c11 -16 10 -21 -4 -38 -11 -12 -104 -14 -640 -11 l-628 2 0 25 0
25 358 0 c370 0 803 9 812 17 10 9 94 -7 102 -20z m5901 6 l587 -6 0 -24 0
-23 -594 0 c-327 0 -601 -2 -609 -5 -7 -3 -24 3 -37 13 l-23 19 22 22 c16 16
30 21 44 17 12 -4 286 -9 610 -13z m-7661 -30 c21 -19 24 -49 6 -56 -7 -2 -28
0 -45 4 -20 4 -33 3 -33 -3 0 -5 -4 -6 -10 -3 -27 17 6 75 43 75 11 0 29 -7
39 -17z m8816 5 c19 -19 15 -58 -7 -58 -10 0 -33 -3 -50 -6 -28 -6 -31 -4 -31
19 0 47 57 76 88 45z m-2007 -59 c9 -18 8 -19 -9 -8 -10 6 -19 18 -19 25 0 17
14 8 28 -17z m1061 -119 l538 0 0 -25 0 -25 -660 0 c-648 0 -660 0 -660 20 0
34 28 41 139 35 57 -3 346 -5 643 -5z m-6194 -22 l-3 -23 -667 -3 -668 -2 0
25 0 25 671 0 670 0 -3 -22z m-1718 -90 c18 -13 40 -38 49 -55 l16 -32 814 -3
c773 -3 814 -4 825 -21 17 -28 -18 -50 -69 -43 -22 3 -382 9 -800 12 l-760 7
-12 -34 c-17 -45 -74 -84 -124 -84 -48 0 -88 29 -113 80 -17 34 -18 44 -7 84
14 53 38 81 84 98 47 17 60 16 97 -9z m8956 -3 c12 -8 25 -11 29 -7 5 4 5 2 1
-5 -3 -6 3 -18 15 -26 15 -11 17 -16 7 -20 -11 -5 -10 -7 1 -15 7 -5 15 -28
16 -50 2 -33 -1 -39 -13 -34 -11 4 -14 1 -9 -10 4 -11 -2 -18 -16 -23 -21 -6
-22 -6 -2 -14 19 -8 19 -8 -2 -15 -13 -4 -28 -4 -34 0 -8 4 -9 3 -5 -4 4 -7 4
-12 -1 -13 -7 0 -22 -3 -48 -9 -29 -7 -57 3 -83 29 -27 28 -51 78 -31 65 5 -3
9 0 9 6 0 9 -173 10 -672 6 -370 -3 -735 -9 -810 -12 -145 -6 -178 1 -178 36
0 38 33 43 234 36 104 -4 192 -7 195 -8 3 0 278 0 611 1 l605 1 16 33 c27 57
118 85 165 52z m-2365 -202 c-20 -28 -276 -282 -496 -493 -315 -302 -679 -653
-860 -830 -243 -238 -423 -411 -530 -510 -85 -79 -165 -132 -165 -108 0 7 17
21 38 30 55 26 130 94 532 487 201 196 503 489 670 651 416 402 523 506 680
663 132 132 171 164 131 110z m-4961 -98 c18 -11 10 -45 -12 -54 -13 -5 -24
-5 -26 0 -2 5 -261 9 -587 9 l-583 0 -66 -72 c-36 -40 -66 -74 -66 -77 0 -8
1389 -3 1412 5 10 3 18 1 18 -4 0 -12 -69 -32 -109 -32 -18 0 -38 -6 -46 -13
-10 -11 -127 -13 -632 -9 -578 4 -621 3 -634 -13 -46 -56 -59 -65 -94 -65 -21
0 -49 9 -68 23 -27 18 -32 28 -32 62 0 56 10 78 46 99 24 14 42 17 77 12 l46
-6 71 70 70 70 585 2 c608 3 614 3 630 -7z m6870 -64 c50 -55 69 -70 96 -73
19 -2 41 0 49 5 11 6 24 0 45 -23 42 -45 41 -91 -4 -136 -45 -45 -87 -42 -132
10 l-32 37 -488 -1 c-720 -2 -798 -1 -814 10 -12 7 -12 12 -2 22 10 10 145 13
664 13 512 0 652 3 655 12 3 7 -24 43 -59 79 l-63 66 -565 -5 c-311 -3 -577
-8 -592 -12 -21 -6 -29 -2 -43 19 -9 14 -14 29 -11 35 4 5 246 10 620 10 l614
1 62 -69z m-1315 -141 c9 0 12 -6 9 -15 -5 -13 -9 -13 -35 0 -18 10 -26 20
-23 30 5 13 8 13 21 0 8 -8 21 -15 28 -15z m-5562 -37 c-7 -2 -21 -2 -30 0
-10 3 -4 5 12 5 17 0 24 -2 18 -5z m237 -101 c-8 -3 -21 -11 -28 -19 -8 -7
-18 -11 -23 -8 -5 4 -9 2 -9 -4 0 -5 -13 -8 -30 -6 -30 4 -41 -9 -17 -19 6 -2
3 -4 -8 -4 -11 1 -55 0 -98 0 l-78 -2 21 -28 c12 -16 22 -41 24 -56 l3 -28
123 1 c68 1 132 7 143 13 11 5 39 28 63 50 32 29 48 38 64 33 36 -11 33 -17
-63 -103 l-58 -52 -196 1 c-191 1 -197 2 -220 25 -27 27 -31 79 -7 112 l15 22
-80 0 -81 0 -102 -95 -103 -95 -386 0 -385 0 -75 -67 c-122 -110 -122 -110
-116 -127 6 -14 44 -16 343 -16 l336 0 60 -55 60 -56 91 7 92 7 108 104 108
103 339 0 338 0 70 77 c67 74 71 77 96 65 44 -20 32 -44 -61 -120 l-86 -72
-340 0 -340 0 -98 -95 c-54 -52 -108 -99 -121 -104 -13 -5 -66 -9 -119 -10
l-97 -2 -53 50 -54 49 -335 3 -335 4 -39 -28 c-45 -31 -67 -34 -106 -10 -55
32 -66 102 -24 152 20 24 34 31 63 31 20 0 47 -7 60 -16 23 -16 25 -15 120 80
l97 96 387 0 388 -1 100 93 101 93 141 6 c78 4 195 7 260 8 91 1 122 4 134 16
8 8 20 12 26 8 7 -4 7 -8 -3 -11z m5420 -18 l249 -1 103 -97 102 -96 388 0
387 0 58 -53 c143 -132 141 -131 169 -118 68 30 144 -14 144 -84 0 -81 -108
-128 -165 -71 l-23 24 -339 -6 -338 -5 -52 -48 -52 -49 -110 0 -111 0 -105
105 -106 105 -329 0 -328 0 -81 76 c-45 42 -81 84 -81 94 0 23 41 35 56 15 6
-8 14 -15 18 -15 9 0 96 -90 87 -90 -3 0 3 -6 14 -13 14 -9 110 -13 335 -15
l314 -4 117 -109 117 -109 80 0 81 0 65 55 65 55 336 0 c282 0 336 2 332 14
-3 7 0 19 6 25 8 8 8 11 -2 11 -7 0 -50 36 -95 80 l-82 80 -394 0 -393 0 -98
95 -98 95 -81 -2 c-44 -2 -80 -3 -80 -4 0 0 7 -15 15 -32 18 -35 12 -73 -16
-98 -18 -16 -40 -19 -109 -12 -14 1 -82 -1 -153 -6 l-127 -8 -65 63 c-36 34
-65 70 -65 81 0 30 43 22 76 -14 l29 -33 -35 30 -35 30 30 -33 c16 -18 35 -30
43 -27 7 2 11 1 8 -4 -3 -5 2 -15 11 -22 14 -12 16 -12 9 1 -4 9 -1 8 7 -2 12
-15 32 -18 126 -18 l111 0 0 40 c0 27 6 45 20 58 21 19 20 19 -26 26 -26 3
-69 6 -96 6 -36 0 -59 7 -88 26 -22 15 -40 31 -40 37 0 6 9 2 21 -9 19 -17 41
-19 269 -20z m1574 -53 c3 -4 -6 -6 -19 -3 -14 2 -25 6 -25 8 0 8 39 4 44 -5z
m-2229 -385 c33 -34 83 -86 111 -116 29 -30 104 -107 168 -170 l116 -115 218
-5 c209 -5 217 -6 217 -25 0 -19 -8 -20 -218 -23 l-218 -2 -123 112 c-67 62
-180 165 -250 228 -121 108 -156 145 -156 162 0 3 7 14 16 22 21 22 44 9 119
-68z m-4255 41 c0 -20 -106 -125 -206 -205 -27 -21 -94 -82 -149 -135 -55 -52
-117 -109 -139 -126 l-39 -31 -229 0 -229 0 3 23 c3 22 4 22 229 27 l226 5
159 151 c88 84 194 188 237 232 43 45 86 82 95 85 27 6 42 -3 42 -26z m4072
-139 c17 -18 27 -26 23 -18 -8 13 -6 13 8 1 9 -7 14 -17 11 -22 -3 -5 0 -8 7
-7 6 2 32 -23 56 -54 24 -32 150 -159 281 -283 l236 -225 170 0 169 0 104
-101 104 -101 382 4 382 3 44 -25 c61 -34 86 -79 86 -155 0 -48 -5 -67 -23
-90 -39 -49 -87 -77 -141 -83 -57 -5 -95 13 -150 73 l-33 36 -403 -2 -403 -3
-108 101 c-60 56 -121 111 -136 123 -26 20 -28 27 -28 90 0 56 -3 71 -18 79
-28 15 -497 445 -646 592 -58 58 -67 71 -56 84 20 24 47 18 82 -17z m-3934 10
c16 -16 15 -45 -2 -55 -8 -4 -38 -31 -68 -58 -29 -28 -75 -68 -103 -90 -27
-22 -59 -47 -70 -57 -11 -9 -40 -33 -65 -53 -25 -21 -92 -81 -150 -135 -189
-175 -245 -221 -272 -227 -27 -5 -28 -8 -28 -68 l0 -63 -133 -128 -134 -127
-406 -1 -406 -1 -36 -42 c-128 -150 -368 7 -291 191 8 18 31 46 52 62 l37 29
397 5 397 5 103 98 103 97 180 0 180 0 86 78 c134 121 397 371 491 466 84 85
112 100 138 74z m-580 -25 c3 -23 3 -23 -143 -23 l-146 0 -97 -92 c-53 -51
-147 -141 -209 -200 l-111 -108 -451 0 c-363 0 -449 -3 -445 -13 2 -7 -5 -22
-16 -34 -22 -24 -27 -38 -8 -27 7 4 8 3 4 -4 -4 -6 -14 -8 -23 -5 -10 4 -14 2
-9 -5 3 -6 1 -14 -5 -18 -8 -5 -9 -3 -4 6 5 9 2 10 -14 5 -38 -12 -91 -13 -84
-2 4 6 0 8 -11 4 -9 -4 -15 -3 -12 2 3 4 -6 19 -19 31 -14 13 -25 35 -25 49 0
21 -2 23 -10 11 -6 -9 -10 -10 -10 -3 0 6 5 15 11 19 6 3 9 19 7 35 -3 17 0
26 6 22 6 -4 7 1 2 13 -4 10 -4 15 0 11 4 -3 15 3 26 15 10 12 24 23 31 24 7
2 22 5 35 8 13 3 22 0 22 -7 0 -9 3 -8 8 1 7 9 16 7 43 -11 19 -12 35 -29 35
-37 1 -8 2 -21 3 -27 1 -10 99 -13 454 -13 l452 0 120 121 c66 66 159 157 208
200 l87 80 148 -3 c144 -3 147 -3 150 -25z m5497 -173 l200 -200 442 0 442 0
17 30 c19 31 68 60 103 60 30 0 83 -24 102 -46 9 -11 20 -35 23 -54 4 -26 3
-30 -3 -15 -9 18 -10 17 -10 -8 -1 -33 -39 -95 -64 -103 -9 -3 -15 -10 -12
-15 4 -5 -12 -9 -34 -9 -46 0 -105 43 -115 85 l-6 25 -446 0 -447 0 -202 200
-202 200 -146 0 c-136 0 -147 1 -147 18 0 10 3 22 7 25 3 4 72 7 152 7 l146 0
200 -200z m-1131 61 c15 -13 18 -13 11 -1 -8 13 -6 13 8 1 9 -7 14 -17 11 -22
-3 -5 2 -9 11 -9 9 0 13 -4 10 -10 -3 -5 0 -10 8 -10 8 0 22 -10 33 -22 l19
-23 -25 20 -25 20 24 -27 c13 -15 28 -25 34 -21 6 3 7 1 3 -6 -8 -12 322 -352
438 -451 62 -52 65 -57 65 -100 1 -45 2 -46 138 -175 186 -177 177 -169 377
-360 174 -167 178 -170 229 -177 117 -14 204 -8 190 15 -4 6 2 8 15 5 13 -4
22 -1 23 5 0 8 2 8 6 0 2 -7 12 -13 21 -13 26 0 62 -41 62 -70 0 -15 -9 -39
-21 -54 -39 -49 -119 -26 -119 36 l0 28 -121 0 -120 0 -142 138 c-78 77 -182
177 -232 223 -49 46 -149 141 -220 212 -123 119 -131 129 -127 160 3 30 -2 39
-55 88 -32 30 -137 131 -234 224 -198 191 -204 196 -215 187 -4 -4 -5 0 -2 8
3 9 -8 25 -26 40 l-31 24 19 -24 c11 -14 -10 5 -47 42 -63 64 -81 100 -60 121
9 10 44 -2 67 -22z m-3639 -18 c6 -25 0 -34 -51 -80 -32 -28 -62 -49 -67 -46
-6 3 -7 1 -4 -4 4 -6 -8 -21 -25 -34 -18 -13 -41 -34 -52 -46 -11 -13 -24 -23
-30 -23 -6 0 -33 -21 -61 -46 -27 -25 -97 -90 -155 -143 -58 -53 -135 -123
-172 -156 -57 -49 -68 -64 -68 -90 0 -29 -18 -49 -152 -176 -84 -79 -249 -237
-366 -351 l-214 -208 -109 0 c-98 0 -109 -2 -109 -18 0 -10 -10 -31 -22 -48
-26 -33 -65 -38 -108 -14 -14 8 -29 13 -33 12 -5 -1 -6 2 -2 8 3 5 3 16 -2 23
-15 23 -8 52 19 80 30 31 96 38 118 12 10 -12 36 -15 118 -15 l105 0 224 218
c123 119 283 272 356 340 117 109 133 127 137 161 4 34 17 49 105 126 55 49
204 191 330 317 182 179 236 228 257 228 20 0 27 -6 33 -27z m3513 -110 c23
-23 23 -24 3 -8 -14 11 18 -24 72 -77 53 -53 97 -102 97 -109 0 -6 119 -130
264 -275 l263 -263 7 -75 7 -74 102 -100 c56 -55 116 -112 132 -126 17 -15
120 -116 230 -224 380 -373 425 -416 425 -404 0 22 64 45 103 38 47 -9 87 -56
87 -102 0 -48 -34 -110 -70 -129 -33 -17 -74 -20 -65 -5 3 5 2 10 -4 10 -5 0
-23 11 -39 25 -16 13 -32 22 -35 19 -3 -3 -8 0 -13 7 -4 8 -3 10 4 5 7 -4 12
-3 12 3 0 5 -5 13 -10 16 -6 4 -8 16 -4 27 5 16 3 19 -7 12 -11 -6 -12 -5 -2
7 18 22 -56 99 -511 533 l-386 370 0 70 c0 63 -3 75 -28 104 -15 17 -31 32
-36 32 -5 0 -133 123 -285 274 -252 249 -298 293 -383 366 -30 25 -35 49 -16
68 20 20 56 14 86 -15z m-3389 4 c6 -8 8 -24 6 -38 -5 -28 -83 -101 -98 -92
-6 3 -7 1 -4 -4 4 -6 -1 -17 -10 -24 -14 -12 -16 -12 -8 1 9 16 -30 -20 -270
-246 -88 -83 -194 -182 -235 -220 -153 -141 -150 -136 -150 -212 l-1 -67 -107
-96 c-166 -150 -761 -739 -776 -768 -7 -14 -13 -41 -15 -60 -2 -41 -31 -93
-48 -87 -7 3 -12 0 -10 -6 3 -18 -62 -31 -92 -18 -29 12 -81 55 -81 66 0 4 12
-3 27 -17 l27 -24 -22 29 c-53 69 -11 159 83 177 40 7 52 6 62 -6 7 -8 8 -11
1 -5 -7 6 -17 10 -22 10 -6 0 0 -7 12 -16 18 -13 25 -13 40 -2 9 7 130 123
267 258 305 299 504 491 568 548 l47 42 0 68 0 67 193 184 c105 102 278 271
382 377 105 106 197 193 206 193 9 1 21 -5 28 -12z m3634 -536 l187 -184 0
-107 0 -107 175 -174 c96 -95 180 -176 185 -179 6 -4 8 -15 4 -26 -4 -13 -3
-15 3 -6 7 9 17 5 42 -19 26 -24 30 -33 20 -40 -8 -5 -17 -8 -21 -6 -5 2 -349
321 -435 404 -21 20 -23 31 -23 130 l0 109 -162 160 c-90 87 -227 220 -305
293 -79 74 -143 140 -143 147 0 7 10 20 22 29 22 15 26 12 143 -112 66 -70
204 -210 308 -312z m-3497 404 c16 -25 16 -26 -30 -70 -25 -25 -48 -45 -52
-45 -11 0 -33 -28 -27 -34 4 -3 0 -6 -8 -6 -17 0 -80 -54 -214 -180 -49 -47
-138 -130 -197 -184 l-108 -99 0 -110 c0 -107 0 -109 -27 -130 -16 -12 -93
-82 -173 -157 -80 -74 -167 -155 -194 -180 -26 -25 -53 -44 -58 -42 -5 1 -7
-2 -4 -7 3 -5 0 -14 -8 -20 -10 -8 -16 -9 -19 -1 -3 6 -4 5 -2 -2 5 -21 -54
-76 -76 -71 -24 7 -24 7 8 43 20 23 29 27 36 18 6 -10 7 -9 4 3 -4 12 65 83
229 240 l234 223 0 104 0 104 123 116 c67 63 210 205 317 313 107 109 203 199
212 199 10 0 25 -11 34 -25z m3044 -190 c52 -53 94 -99 93 -103 0 -4 3 -6 8
-5 5 2 9 -2 9 -8 0 -6 68 -78 151 -161 146 -146 150 -150 133 -169 -17 -19
-21 -17 -148 109 -72 70 -192 188 -266 260 l-135 132 24 20 c13 11 26 20 30
20 3 0 49 -43 101 -95z m-2912 57 c5 -30 -3 -39 -138 -151 -118 -98 -182 -156
-328 -293 -68 -64 -87 -77 -98 -67 -8 6 -14 15 -14 19 0 4 51 56 113 116 61
60 156 153 211 206 54 54 102 98 107 98 5 0 9 7 9 16 0 8 4 13 9 10 12 -8 33
19 23 29 -4 5 -2 5 5 1 7 -3 20 4 30 19 23 33 66 31 71 -3z m116 -98 c20 -8
22 -74 3 -74 -8 0 -25 -12 -40 -27 -14 -16 -32 -33 -39 -39 -33 -26 -221 -184
-288 -242 -70 -61 -207 -185 -360 -327 -36 -34 -108 -99 -160 -145 -52 -47
-156 -141 -230 -209 -74 -69 -153 -141 -175 -161 -36 -31 -37 -32 -15 -5 14
16 28 31 33 33 4 2 7 7 7 12 0 15 -29 4 -56 -21 -15 -13 -24 -19 -20 -12 4 7
113 110 244 230 130 120 329 303 442 408 113 105 255 234 315 287 61 53 155
142 210 197 55 56 103 101 106 101 4 0 14 -3 23 -6z m2651 -69 c190 -204 370
-381 615 -605 188 -170 376 -348 499 -469 64 -63 96 -97 71 -75 -24 21 -48 45
-53 52 -4 6 -14 12 -22 12 -8 0 -19 8 -25 18 -9 14 -10 13 -4 -7 l7 -25 -34
28 c-35 30 -178 160 -308 281 -42 39 -112 104 -156 145 -45 41 -141 132 -215
201 -74 69 -175 162 -225 206 -49 44 -110 102 -135 127 -42 44 -77 65 -49 29
8 -10 -12 5 -43 32 -48 40 -58 54 -58 80 0 38 6 45 39 45 19 0 44 -19 96 -75z
m-2504 -77 c8 -15 4 -26 -21 -58 -21 -27 -36 -37 -48 -34 -12 4 -13 3 -4 -3
10 -7 7 -14 -9 -29 -14 -12 -19 -13 -14 -4 8 13 6 13 -8 1 -9 -7 -14 -18 -10
-24 3 -6 1 -7 -6 -3 -12 8 -30 -6 -175 -138 -49 -45 -97 -87 -107 -94 -11 -7
-19 -21 -19 -31 0 -10 -9 -30 -21 -45 -17 -22 -28 -26 -72 -26 -50 0 -52 -1
-131 -77 -71 -69 -215 -203 -426 -398 -36 -33 -99 -92 -140 -131 -146 -138
-200 -184 -217 -185 -11 0 -13 -3 -6 -6 10 -3 10 -8 -1 -19 -19 -18 -32 -18
-17 0 8 10 9 16 1 21 -6 3 -8 11 -4 16 3 5 9 7 14 4 4 -3 10 1 13 9 5 12 514
497 735 700 94 85 97 90 102 138 9 79 58 107 124 73 29 -15 30 -15 70 22 22
21 110 109 196 196 161 164 175 173 201 125z m2344 -35 c28 -26 50 -49 50 -52
-1 -13 29 -40 38 -34 6 3 7 2 4 -4 -3 -5 43 -58 102 -117 97 -97 111 -107 129
-97 32 17 77 13 106 -10 22 -17 26 -28 26 -69 0 -32 5 -52 14 -57 16 -9 142
-124 376 -342 310 -290 332 -312 325 -319 -4 -4 -12 0 -18 8 -7 9 -30 29 -51
45 -34 26 -37 27 -25 7 8 -12 19 -22 25 -22 12 0 28 -29 21 -37 -2 -2 -20 13
-38 34 -19 21 -104 101 -189 177 -119 107 -428 396 -471 440 -3 4 -17 2 -31
-3 -47 -18 -108 26 -108 77 0 13 -38 52 -107 111 -280 236 -301 258 -282 293
16 30 51 20 104 -29z m-2224 -89 c14 -13 16 -20 7 -40 -6 -13 -14 -24 -17 -24
-3 0 -37 -30 -76 -66 -38 -36 -108 -98 -154 -137 -46 -39 -123 -107 -170 -152
-47 -45 -135 -128 -196 -185 -60 -57 -197 -187 -303 -289 -106 -102 -198 -185
-203 -184 -5 2 -8 -1 -6 -5 1 -5 -25 -35 -57 -68 -33 -32 -54 -51 -47 -42 7 9
10 22 6 28 -4 6 -1 9 7 8 8 -2 12 4 10 15 -2 12 13 34 40 59 119 113 700 679
897 875 124 123 229 223 235 223 5 0 17 -7 27 -16z m2102 -68 c272 -279 343
-351 427 -430 189 -179 614 -601 612 -608 -1 -5 1 -7 6 -6 4 2 48 -37 97 -86
50 -49 78 -81 63 -71 -18 11 -28 13 -28 6 0 -7 -5 -9 -11 -5 -8 5 -8 8 0 13 8
5 5 14 -9 26 -20 18 -21 18 -14 -1 5 -18 5 -17 -13 2 -10 12 -26 24 -36 27 -9
4 -16 10 -15 14 2 4 0 8 -4 8 -14 0 -157 148 -152 157 3 5 1 7 -4 6 -14 -4
-191 161 -647 602 -88 85 -182 173 -210 195 -27 22 -53 44 -56 49 -4 5 -12 5
-18 2 -7 -4 -10 -2 -9 5 2 7 -4 13 -12 14 -8 0 -15 7 -15 15 -1 8 -7 14 -15
12 -8 -2 -12 0 -7 4 4 4 -7 22 -24 40 -25 26 -30 38 -25 58 11 44 42 32 119
-48z m-2358 15 c-3 -6 -11 -11 -16 -11 -5 0 -4 6 3 14 14 16 24 13 13 -3z
m387 -78 c23 -21 23 -35 -1 -53 -11 -7 -18 -17 -15 -22 3 -4 -1 -8 -9 -8 -7 0
-23 -10 -34 -22 -11 -13 -31 -30 -43 -39 -21 -16 -170 -156 -394 -368 -60 -57
-129 -126 -152 -153 -39 -43 -42 -51 -33 -75 14 -38 -16 -77 -62 -81 -77 -6
-97 -21 -321 -238 -58 -57 -109 -104 -112 -104 -3 0 -3 7 0 15 4 8 2 15 -4 15
-5 0 -9 -10 -8 -22 1 -14 -8 -27 -21 -34 -13 -6 -21 -13 -18 -16 3 -2 -20 -28
-50 -57 -44 -43 -56 -50 -61 -36 -6 14 -9 14 -30 -6 -32 -30 -31 -46 1 -25 50
33 23 -4 -53 -74 -69 -62 -79 -75 -80 -107 -6 -144 -222 -187 -297 -58 -66
111 13 245 145 245 43 0 125 -50 136 -82 6 -19 8 -18 43 16 35 34 60 48 46 26
-10 -16 1 -11 16 7 10 11 10 14 2 9 -27 -15 -11 5 43 56 31 29 61 54 67 56 7
2 0 -8 -15 -22 -16 -14 -24 -27 -19 -30 5 -3 12 1 15 10 3 8 11 12 17 8 7 -4
9 -3 6 3 -4 6 0 14 9 17 14 5 14 9 3 24 -13 15 -12 16 4 3 15 -12 17 -11 15
10 -2 15 2 24 12 25 8 1 23 2 33 3 9 0 17 8 17 17 0 9 -5 12 -12 8 -7 -3 21
28 62 70 41 41 80 74 86 72 6 -2 17 0 25 6 11 8 10 9 -3 4 -10 -3 -18 -2 -18
2 0 10 43 37 53 34 5 -1 6 2 3 6 -6 10 102 117 146 146 25 16 27 23 22 55 -8
48 13 71 63 71 33 0 51 15 231 193 186 184 250 248 372 381 137 149 138 150
172 119z m1762 -9 c9 -8 16 -12 16 -7 0 4 21 -14 48 -42 26 -27 46 -53 44 -57
-1 -5 3 -7 9 -5 6 1 16 -7 22 -18 7 -11 16 -23 20 -26 5 -3 7 -9 5 -12 -1 -3
113 -119 256 -259 215 -210 265 -254 294 -259 42 -8 62 -31 62 -73 0 -26 11
-39 58 -77 31 -25 56 -51 55 -57 -2 -7 3 -11 10 -9 6 1 11 -4 9 -11 -1 -8 2
-11 8 -7 6 3 61 -43 123 -103 61 -60 147 -143 190 -183 42 -40 77 -77 77 -82
0 -6 -9 -2 -20 8 -11 10 -20 14 -20 10 0 -13 73 -74 82 -69 4 3 8 -2 8 -10 0
-9 -5 -16 -11 -16 -5 0 -67 55 -137 123 -70 67 -161 154 -202 193 -41 38 -104
97 -140 131 -107 101 -114 105 -162 98 -36 -5 -47 -3 -67 16 -21 19 -23 28
-18 75 l5 53 -116 107 c-64 59 -173 162 -242 228 -69 67 -171 162 -227 210
-57 49 -103 95 -103 102 0 14 27 44 40 44 5 0 16 -7 24 -16z m-1626 -116 c7
-7 12 -19 12 -27 0 -21 -170 -183 -186 -177 -8 3 -11 0 -7 -10 3 -8 -1 -14
-11 -14 -9 0 -16 -5 -16 -12 0 -6 -6 -19 -14 -27 -11 -12 -16 -64 -22 -201 -4
-107 -10 -177 -15 -165 -7 17 -8 16 -8 -7 -1 -27 -2 -28 -62 -28 l-61 0 4 -60
3 -60 -61 0 -62 0 -4 -58 c-3 -51 -9 -64 -38 -93 -19 -19 -25 -24 -15 -11 17
20 17 22 2 16 -21 -8 -22 9 -3 25 8 7 17 42 21 81 l7 70 59 0 59 0 0 60 0 60
33 2 c17 0 40 0 50 0 10 -1 27 2 37 8 17 9 18 22 14 191 l-5 180 27 36 c53 69
217 233 233 233 9 0 22 -5 29 -12z m1604 -124 l106 -111 7 -64 c4 -35 5 -86 3
-114 -2 -42 -6 -50 -23 -50 -18 0 -20 8 -23 92 -3 105 10 85 -155 238 -80 74
-98 101 -80 119 23 23 63 -5 165 -110z m-1459 -16 c13 -20 -17 -56 -115 -142
-39 -33 -68 -67 -68 -77 0 -14 -7 -19 -25 -19 -22 0 -25 4 -25 38 0 35 8 47
90 131 93 95 119 108 143 69z m1295 -80 c86 -92 108 -129 93 -155 -7 -13 -28
3 -107 84 -55 55 -107 102 -116 106 -31 11 -11 55 25 53 15 -1 50 -30 105 -88z
m-1171 -45 c-4 -3 1 -12 10 -18 15 -11 9 -20 -53 -79 -38 -36 -72 -66 -76 -66
-5 0 -8 -25 -8 -55 0 -52 -1 -55 -25 -55 -24 0 -25 2 -25 65 l0 65 71 75 c44
46 80 75 92 75 11 0 17 -3 14 -7z m955 -21 c-1 -8 1 -11 6 -8 5 3 35 -22 67
-54 l59 -59 -3 -58 c-3 -65 -14 -85 -45 -81 -21 3 -22 6 -25 86 -1 15 -25 47
-66 88 -58 56 -64 67 -55 85 13 23 67 24 62 1z m-832 -150 c-19 -6 -50 -38
-50 -52 0 -5 -7 -10 -16 -10 -8 0 -13 -3 -11 -7 3 -5 1 -17 -4 -28 -7 -18 -8
-17 -8 5 -1 31 74 114 92 103 8 -5 7 -8 -3 -11z m662 -1 c-6 -4 -4 -11 4 -19
10 -10 14 -10 14 -1 0 7 3 10 6 6 3 -3 3 -11 -1 -17 -5 -8 -15 -5 -31 11 -25
23 -24 42 2 32 9 -3 11 -9 6 -12z m58 -46 c10 -12 10 -15 -2 -15 -8 0 -15 7
-15 15 0 8 1 15 2 15 2 0 8 -7 15 -15z m600 -70 l0 -75 65 0 65 0 0 -65 0 -65
64 0 64 0 5 -57 c4 -44 1 -64 -12 -83 -16 -25 -16 -24 -21 40 l-5 65 -65 3
-65 3 3 59 4 60 -51 0 -51 0 -2 -137 -2 -138 -6 140 c-5 114 -7 126 -10 65
l-3 -75 -6 80 c-9 123 -1 255 15 255 11 0 14 -18 14 -75z m1754 -47 c45 -43
76 -78 70 -78 -7 0 -15 7 -18 16 -4 10 -13 13 -25 9 -11 -3 -22 -1 -26 5 -3 5
-1 10 5 10 6 0 9 4 6 9 -3 5 -14 7 -24 4 -10 -2 -24 3 -31 11 -8 10 -9 16 -3
16 6 0 14 -4 17 -10 3 -5 12 -10 18 -10 18 1 -24 30 -43 30 -9 0 -34 18 -55
40 -33 33 -37 43 -25 50 16 10 15 11 134 -102z m-3334 17 c0 -19 -4 -35 -9
-35 -4 0 -8 16 -7 35 1 46 16 46 16 0z m181 -59 c1 -42 -1 -80 -5 -83 -3 -4
-6 33 -6 82 0 108 9 109 11 1z m1009 34 c0 -38 -4 -50 -15 -50 -11 0 -15 12
-15 50 0 38 4 50 15 50 11 0 15 -12 15 -50z m-3306 -2 c-3 -4 -9 -8 -15 -8 -5
0 -9 4 -9 8 0 5 7 9 15 9 8 0 12 -4 9 -9z m1426 -8 c0 -4 -37 -42 -82 -85 -46
-43 -140 -134 -210 -203 -71 -69 -130 -123 -133 -121 -2 3 36 45 85 94 50 49
90 96 90 105 0 21 221 229 237 223 7 -3 13 -9 13 -13z m2717 -113 c61 -60 114
-120 118 -134 4 -17 11 -23 21 -19 9 3 12 1 9 -4 -3 -6 1 -10 9 -10 9 0 13 -6
10 -13 -3 -8 2 -20 10 -27 9 -7 13 -16 10 -21 -3 -5 -27 12 -53 38 -26 27
-104 104 -174 171 -70 68 -127 127 -127 132 0 14 24 18 40 6 8 -6 65 -60 127
-119z m-2027 88 c0 -8 -4 -15 -8 -15 -5 0 -9 7 -9 15 0 8 4 15 9 15 4 0 8 -7
8 -15z m3123 -38 c-3 -5 -14 1 -24 12 -26 28 -24 35 5 14 13 -10 22 -22 19
-26z m-3505 -74 l-2 -98 -6 75 -6 75 -4 -55 -4 -55 -3 48 c-3 39 12 107 24
107 2 0 2 -44 1 -97z m3572 20 c25 -26 34 -38 20 -28 -49 39 -85 75 -75 75 6
-1 30 -22 55 -47z m215 36 c11 -16 1 -19 -13 -3 -7 8 -8 14 -3 14 5 0 13 -5
16 -11z m-149 -61 l29 -33 -32 29 c-18 17 -33 31 -33 33 0 8 8 1 36 -29z
m-201 -38 c16 -17 16 -20 3 -15 -9 4 -19 13 -22 21 -7 19 -2 18 19 -6z m-5895
-4 c0 -2 -9 -6 -20 -9 -11 -3 -18 -1 -14 4 5 9 34 13 34 5z m-92 -56 c-22 -30
-35 -41 -22 -17 9 16 36 47 41 47 2 0 -6 -13 -19 -30z m932 -64 c0 -2 -8 -10
-17 -17 -16 -13 -17 -12 -4 4 13 16 21 21 21 13z m4255 -38 c22 -23 31 -35 19
-25 -11 9 -26 17 -33 17 -7 0 -9 5 -6 10 3 6 -1 13 -9 16 -9 3 -16 10 -16 15
0 14 4 12 45 -33z m-3345 -12 c0 -2 -8 -10 -17 -17 -16 -13 -17 -12 -4 4 13
16 21 21 21 13z m360 -19 c0 -2 -15 -16 -32 -33 l-33 -29 29 33 c28 30 36 37
36 29z m3000 -17 c6 -11 9 -20 7 -20 -2 0 -12 9 -22 20 -10 11 -13 20 -7 20 6
0 16 -9 22 -20z m-3390 -33 c0 -1 -28 -29 -62 -62 -34 -33 -53 -49 -43 -35 49
61 105 113 105 97z m501 -30 c-10 -9 -11 -8 -5 6 3 10 9 15 12 12 3 -3 0 -11
-7 -18z m2964 -17 c21 -22 37 -40 34 -40 -3 0 -23 18 -44 40 -21 22 -37 40
-34 40 3 0 23 -18 44 -40z m40 0 c10 -11 16 -20 13 -20 -3 0 -13 9 -23 20 -10
11 -16 20 -13 20 3 0 13 -9 23 -20z m595 5 c-7 -8 -17 -15 -23 -15 -6 0 -2 7
9 15 25 19 30 19 14 0z m-150 -110 c7 -9 8 -15 2 -15 -5 0 -12 7 -16 15 -3 8
-4 15 -2 15 2 0 9 -7 16 -15z m-4105 -5 c-3 -5 -12 -10 -18 -10 -7 0 -6 4 3
10 19 12 23 12 15 0z m3753 -20 c7 -11 11 -20 9 -20 -2 0 -12 9 -22 20 -10 11
-14 20 -9 20 5 0 15 -9 22 -20z m702 0 c98 -50 119 -167 43 -251 -61 -68 -162
-76 -228 -17 -37 32 -60 87 -51 120 3 14 -4 32 -20 51 -26 31 -26 49 1 27 12
-10 18 -10 30 0 9 7 14 19 11 26 -3 8 -2 13 2 11 11 -3 62 40 55 47 -3 3 22 6
56 6 42 0 74 -6 101 -20z m-4491 -16 c-6 -8 -17 -14 -23 -14 -6 0 -3 5 7 11 9
6 14 15 11 21 -4 7 -2 8 5 4 9 -6 9 -11 0 -22z m-35 1 c-4 -8 -11 -15 -16 -15
-6 0 -5 6 2 15 7 8 14 15 16 15 2 0 1 -7 -2 -15z m4239 -41 c-3 -8 -9 -14 -14
-14 -13 0 -11 17 4 24 6 3 2 3 -10 0 -25 -6 -26 -4 -17 21 6 15 8 15 25 -1 10
-9 15 -22 12 -30z m-3332 -32 c-12 -22 -41 -48 -41 -36 0 8 40 54 47 54 2 0
-1 -8 -6 -18z m-101 -96 c0 -2 -8 -10 -17 -17 -16 -13 -17 -12 -4 4 13 16 21
21 21 13z m1828 -378 c6 -6 31 -13 54 -14 50 -3 93 -42 82 -76 -3 -11 -7 -26
-8 -33 -6 -43 -71 -60 -114 -29 -22 15 -32 41 -10 28 7 -4 8 -3 4 5 -5 7 -9
23 -10 36 -2 13 -13 36 -25 51 -17 21 -19 29 -9 36 17 10 22 10 36 -4z m-1423
-28 c14 -16 21 -18 27 -8 5 8 6 -4 2 -27 -12 -78 -56 -115 -106 -89 -15 8 -29
18 -32 22 -14 24 -12 63 5 91 15 25 25 31 52 31 21 0 41 -8 52 -20z m501 -52
c5 -34 11 -48 22 -48 8 0 12 -3 9 -6 -3 -4 7 -22 23 -42 20 -24 26 -40 20 -51
-4 -9 -13 -28 -20 -43 -16 -34 -60 -52 -106 -45 -47 8 -72 31 -80 74 -9 46 11
87 52 109 30 16 34 23 34 59 0 34 3 41 20 41 16 0 21 -9 26 -48z m482 -16 c2
-33 7 -42 18 -38 8 3 14 1 14 -4 0 -6 9 -10 20 -10 13 0 20 -7 20 -19 0 -11 4
-21 10 -23 17 -6 -9 -76 -37 -98 -40 -31 -97 -27 -134 9 -41 41 -39 79 6 127
22 23 35 47 35 64 0 31 8 42 30 38 10 -2 16 -17 18 -46z m-268 -77 c0 -17 2
-17 10 -5 12 19 11 23 20 -159 3 -60 5 -66 47 -108 40 -39 44 -47 38 -76 -11
-49 -21 -63 -60 -81 -43 -21 -89 -14 -127 19 -22 19 -28 33 -28 65 0 23 5 50
10 60 9 16 8 19 -7 14 -19 -6 32 47 61 63 12 7 15 31 17 132 1 75 5 118 10
110 5 -8 9 -23 9 -34z"/>
<path d="M5120 9720 c6 -11 13 -20 16 -20 2 0 0 9 -6 20 -6 11 -13 20 -16 20
-2 0 0 -9 6 -20z"/>
<path d="M4945 9586 c9 -13 24 -27 33 -31 10 -4 5 6 -12 24 -36 37 -42 39 -21
7z"/>
<path d="M4664 8576 c-3 -8 -4 -25 -2 -38 3 -20 9 -23 56 -26 l52 -3 0 40 0
41 -50 0 c-35 0 -52 -5 -56 -14z"/>
<path d="M5290 8555 l0 -35 55 0 55 0 0 35 0 35 -55 0 -55 0 0 -35z"/>
<path d="M3567 9234 c-16 -17 -6 -55 18 -66 32 -14 57 5 53 41 -2 21 -9 27
-33 29 -17 2 -34 0 -38 -4z"/>
<path d="M6427 9233 c-26 -26 12 -80 47 -67 21 8 30 42 16 59 -13 15 -51 20
-63 8z"/>
<path d="M5797 9194 c-8 -8 1 -24 14 -24 5 0 9 7 9 15 0 15 -12 20 -23 9z"/>
<path d="M3367 8322 c-36 -39 -10 -92 43 -92 43 0 69 67 38 98 -18 18 -63 14
-81 -6z"/>
<path d="M4240 9185 c0 -8 5 -15 10 -15 6 0 10 7 10 15 0 8 -4 15 -10 15 -5 0
-10 -7 -10 -15z"/>
<path d="M6622 8328 c-20 -20 -15 -76 7 -88 66 -35 117 18 75 78 -17 24 -62
30 -82 10z"/>
<path d="M2475 8841 c-37 -22 -65 -62 -65 -93 0 -36 34 -83 75 -102 33 -16 41
-16 73 -4 45 17 82 69 82 116 0 27 -8 42 -36 68 -41 39 -82 44 -129 15z"/>
<path d="M7471 8834 c-41 -34 -55 -87 -35 -128 48 -99 189 -88 221 17 30 98
-106 179 -186 111z"/>
<path d="M4215 7078 c-99 -102 -99 -102 -15 -23 76 72 126 125 118 125 -2 0
-48 -46 -103 -102z"/>
<path d="M6060 6867 c0 -6 210 -212 243 -237 55 -44 24 -10 -108 114 -74 71
-135 126 -135 123z"/>
<path d="M6355 6580 c10 -11 20 -20 23 -20 3 0 -3 9 -13 20 -10 11 -20 20 -23
20 -3 0 3 -9 13 -20z"/>
<path d="M3509 6383 l-34 -38 38 34 c20 19 37 36 37 38 0 8 -8 0 -41 -34z"/>
<path d="M3453 6328 c-13 -22 -13 -42 0 -29 10 10 19 41 12 41 -2 0 -7 -6 -12
-12z"/>
<path d="M3347 6222 c-21 -21 -34 -42 -30 -46 5 -4 2 -6 -6 -4 -8 2 -20 -7
-26 -20 -7 -13 -16 -23 -20 -22 -11 3 -164 -142 -171 -162 -3 -10 -10 -16 -15
-13 -5 4 -9 -1 -9 -10 0 -9 -4 -14 -8 -11 -5 3 -22 -9 -38 -27 -16 -18 -19
-24 -6 -13 14 12 22 15 22 7 0 -7 52 36 115 96 63 59 113 113 111 120 -3 7 1
10 8 7 13 -5 126 108 126 126 0 19 -16 10 -53 -28z m17 -7 c-9 -14 -20 -25
-25 -25 -5 0 1 11 13 25 12 14 23 25 25 25 2 0 -4 -11 -13 -25z"/>
<path d="M6700 6236 c0 -2 8 -10 18 -17 15 -13 16 -12 3 4 -13 16 -21 21 -21
13z"/>
<path d="M6790 6157 c31 -42 90 -101 94 -96 3 3 -20 30 -51 60 -31 30 -51 46
-43 36z"/>
<path d="M6915 6030 c10 -11 20 -20 23 -20 3 0 -3 9 -13 20 -10 11 -20 20 -23
20 -3 0 3 -9 13 -20z"/>
<path d="M6964 5981 c11 -11 23 -21 28 -21 14 0 -1 19 -25 31 -22 12 -22 12
-3 -10z"/>
<path d="M7023 5926 c14 -14 42 -39 63 -57 27 -23 22 -15 -16 24 -30 31 -58
57 -63 57 -4 0 3 -11 16 -24z"/>
<path d="M2954 5808 l-19 -23 23 19 c21 18 27 26 19 26 -2 0 -12 -10 -23 -22z"/>
<path d="M7364 5602 c0 -10 6 -19 13 -19 8 0 9 6 2 19 -5 10 -11 18 -12 18 -2
0 -3 -8 -3 -18z"/>
<path d="M7390 5570 c-9 -6 -10 -10 -3 -10 6 0 15 5 18 10 8 12 4 12 -15 0z"/>
<path d="M8495 7740 c3 -5 14 -10 23 -10 15 0 15 2 2 10 -20 13 -33 13 -25 0z"/>
<path d="M4980 7551 c-25 -4 -63 -17 -86 -28 -37 -20 -1114 -1079 -1114 -1096
0 -4 41 -7 92 -7 72 0 95 4 110 17 18 16 18 16 12 0 -6 -16 28 -17 490 -17
l496 0 0 -229 c0 -126 -3 -236 -6 -245 -5 -14 -30 -16 -175 -16 l-169 0 -1
-577 c-1 -510 -12 -1074 -17 -875 -1 46 -6 71 -12 67 -7 -4 -10 235 -10 709
l0 716 175 0 175 0 0 25 0 25 -205 0 -205 0 0 -870 0 -870 -160 0 -160 0 0
870 0 870 -155 2 c-296 4 -270 6 -270 -22 l0 -25 183 -3 182 -2 0 -817 c0
-449 -2 -814 -5 -811 -3 2 -6 18 -8 34 -2 16 -9 39 -15 51 -9 16 -12 212 -12
762 l0 741 -185 0 -185 0 -2 229 -3 230 -176 -172 c-96 -95 -258 -252 -360
-349 -101 -97 -226 -217 -277 -267 -113 -111 -142 -164 -141 -261 0 -46 3 -59
9 -45 5 11 9 34 10 50 1 17 4 24 7 17 2 -6 8 -10 13 -7 4 2 10 -15 13 -40 4
-24 16 -64 27 -88 22 -46 48 -73 435 -442 121 -116 269 -258 330 -316 60 -59
126 -121 145 -139 58 -53 502 -482 700 -676 448 -439 447 -437 565 -437 103 0
154 27 285 154 58 56 269 263 470 459 201 196 487 473 635 616 149 143 381
367 516 498 251 241 289 288 303 368 4 20 13 49 21 64 l14 27 6 -39 c11 -67
13 -70 14 -27 0 23 -8 66 -19 96 -18 49 -63 95 -537 557 -559 545 -1160 1136
-1394 1370 -93 94 -161 154 -190 167 -52 25 -116 33 -179 24z m533 -537 c210
-208 428 -424 484 -479 57 -55 103 -104 103 -108 0 -5 -154 140 -342 321 -189
181 -362 345 -384 365 l-41 37 -51 -53 c-27 -28 -93 -94 -145 -146 l-96 -94
-58 49 c-31 27 -102 93 -157 147 -55 53 -103 97 -107 97 -3 0 -98 -93 -210
-206 -236 -237 -511 -500 -486 -464 9 13 209 218 445 454 281 282 441 435 467
448 32 15 56 18 118 15 l79 -5 381 -378z m157 -11 l75 -78 -77 75 c-72 69 -83
80 -75 80 1 0 36 -35 77 -77z m410 -603 c187 -112 268 -187 323 -300 l32 -65
3 -605 c3 -573 2 -627 -23 -750 -9 -44 -65 -180 -75 -180 -4 0 3 28 17 61 14
34 27 78 30 98 12 72 13 1305 2 1346 -19 72 -44 117 -109 198 -8 11 -46 43
-83 73 -122 96 -215 109 -704 99 l-343 -7 -1 -1002 c-1 -850 -7 -1185 -19
-1091 -2 15 -4 12 -9 -10 -7 -32 -21 1107 -21 1757 l0 399 478 -3 c402 -3 481
-6 502 -18z m-61 -100 c145 -40 255 -138 304 -270 15 -41 17 -108 17 -655 0
-669 -1 -684 -60 -794 -30 -57 -102 -135 -174 -191 -61 -47 -131 -75 -246 -97
-14 -3 -165 -7 -336 -10 l-311 -5 -7 532 c-6 480 0 1466 9 1498 4 9 86 12 367
12 334 0 369 -2 437 -20z m-2335 -163 c-22 -24 -41 -42 -43 -40 -5 3 70 83 77
83 3 0 -13 -19 -34 -43z m-138 -145 c-48 -48 -90 -92 -94 -97 -4 -6 -18 -19
-32 -30 -17 -13 -14 -7 10 20 68 79 194 204 199 199 3 -2 -35 -44 -83 -92z
m3038 -37 c65 -69 116 -125 114 -125 -2 0 -59 56 -128 125 -69 69 -120 125
-114 125 6 0 63 -56 128 -125z m156 -160 c13 -14 21 -25 18 -25 -2 0 -15 11
-28 25 -13 14 -21 25 -18 25 2 0 15 -11 28 -25z m51 -52 c13 -16 12 -17 -3 -4
-10 7 -18 15 -18 17 0 8 8 3 21 -13z m-3639 -184 c-3 -20 -7 -26 -12 -19 -6
10 -7 28 -1 48 1 1 5 2 9 2 5 0 6 -14 4 -31z m3755 -86 c-2 -16 -4 -5 -4 22 0
28 2 40 4 28 2 -13 2 -35 0 -50z m25 20 c-5 -76 -10 -83 -11 -15 0 34 2 62 7
62 4 0 6 -21 4 -47z m-3762 -28 c0 -38 -3 -45 -20 -45 -17 0 -20 6 -19 43 0
30 3 36 8 23 7 -19 8 -19 13 2 10 36 18 25 18 -23z m11 -71 c17 -21 0 -49 -31
-49 -31 0 -48 28 -31 49 8 9 21 16 31 16 10 0 23 -7 31 -16z m3773 -7 c9 -15
7 -22 -12 -37 -26 -22 -48 -17 -57 11 -14 44 45 65 69 26z"/>
<path d="M4965 7232 c-67 -42 -84 -111 -40 -168 67 -87 211 -56 231 51 17 93
-107 170 -191 117z"/>
<path d="M5262 6220 c0 -19 2 -27 5 -17 2 9 2 25 0 35 -3 9 -5 1 -5 -18z"/>
<path d="M5639 6122 l-216 -2 4 -718 c2 -394 4 -741 3 -771 0 -43 3 -52 15
-47 8 3 99 6 202 7 183 1 190 2 249 28 75 35 129 87 163 160 l26 56 3 503 c2
480 1 504 -17 540 -25 48 -70 96 -108 116 -61 31 -123 38 -285 31 l-158 -7 0
-664 0 -664 30 0 30 0 0 640 0 640 139 0 c160 0 206 -12 263 -67 58 -57 60
-78 56 -598 l-3 -460 -30 -54 c-16 -30 -48 -67 -70 -83 -77 -57 -97 -61 -282
-66 l-173 -4 -2 686 c-1 377 -2 698 -2 714 l-1 27 225 0 225 0 53 -33 c67 -41
102 -77 127 -130 11 -23 23 -42 28 -42 4 0 7 -7 7 -15 0 -8 5 -15 11 -15 16 0
6 77 -16 123 -20 43 -91 114 -138 139 -18 9 -46 17 -64 18 -17 0 -42 3 -55 8
-13 4 -120 6 -239 4z"/>
<path d="M5260 5379 c0 -409 -3 -815 -7 -902 l-6 -158 272 1 c371 2 463 22
597 128 90 71 164 198 167 285 0 23 5 45 10 48 5 4 6 12 2 19 -4 6 -6 118 -6
248 1 130 -2 233 -6 228 -4 -4 -11 -121 -14 -259 -5 -219 -9 -259 -26 -308
-58 -157 -176 -265 -348 -315 -48 -14 -112 -18 -331 -21 l-271 -5 -7 144 c-3
79 -9 471 -11 872 -3 402 -8 732 -10 735 -3 2 -5 -331 -5 -740z"/>
<path d="M5619 5325 c-1 -333 -2 -611 -3 -617 -1 -9 21 -14 73 -16 141 -6 215
26 272 116 l29 46 0 481 c0 551 4 527 -82 569 -47 24 -63 26 -170 26 l-118 0
-1 -605z"/>
<path d="M5594 4890 c0 -52 1 -74 3 -47 2 26 2 68 0 95 -2 26 -3 4 -3 -48z"/>
<path d="M5592 4760 c0 -14 2 -19 5 -12 2 6 2 18 0 25 -3 6 -5 1 -5 -13z"/>
<path d="M3790 6220 l0 -150 233 -2 232 -3 3 -872 2 -873 115 0 115 0 0 875 0
875 220 0 220 0 0 150 0 150 -570 0 -570 0 0 -150z m1080 0 l0 -100 -213 0
-214 0 1 -872 1 -873 -72 -3 -73 -3 0 876 0 875 -225 0 -225 0 0 93 c0 52 3
97 7 100 3 4 233 7 510 7 l503 0 0 -100z"/>
<path d="M1073 7310 c-82 -36 -95 -136 -27 -199 33 -30 40 -33 85 -29 59 6 94
34 110 89 10 31 9 43 -7 75 -36 72 -93 95 -161 64z"/>
<path d="M8874 7286 c-30 -30 -34 -40 -34 -86 0 -46 4 -56 34 -86 29 -29 41
-34 79 -34 57 0 101 34 118 90 23 76 -35 150 -118 150 -38 0 -50 -5 -79 -34z"/>
<path d="M658 6139 c-21 -12 -24 -49 -6 -67 18 -18 56 -14 67 6 11 20 4 62 -9
62 -5 0 -14 2 -22 5 -7 2 -21 0 -30 -6z"/>
<path d="M9362 6141 c-8 -5 -12 -22 -10 -42 3 -29 7 -34 31 -37 35 -4 57 13
57 44 0 34 -47 55 -78 35z"/>
<path d="M1313 5834 c-21 -32 -8 -58 31 -62 33 -4 56 13 56 42 0 50 -58 63
-87 20z"/>
<path d="M8708 5849 c-26 -15 -24 -66 3 -74 27 -9 65 1 72 18 8 21 -16 62 -38
64 -11 2 -28 -2 -37 -8z"/>
<path d="M533 5033 c9 -2 23 -2 30 0 6 3 -1 5 -18 5 -16 0 -22 -2 -12 -5z"/>
<path d="M9250 4734 c0 -8 5 -12 10 -9 6 4 8 11 5 16 -9 14 -15 11 -15 -7z"/>
<path d="M2128 4509 c-22 -12 -23 -52 -3 -69 23 -19 65 2 65 33 0 40 -28 56
-62 36z"/>
<path d="M642 4194 c-29 -20 -29 -59 2 -79 37 -24 86 2 86 46 0 14 -38 49 -53
49 -7 0 -23 -7 -35 -16z"/>
<path d="M7892 4508 c-17 -17 -15 -42 6 -61 24 -22 35 -21 57 3 37 41 -24 97
-63 58z"/>
<path d="M9366 4194 c-32 -31 -8 -84 38 -84 30 0 46 18 46 52 0 43 -53 64 -84
32z"/>
<path d="M7750 3353 c1 -56 2 -60 58 -120 31 -33 85 -86 119 -117 l63 -56 400
0 400 0 0 36 c0 39 12 68 44 102 l21 23 -323 -2 -324 -2 -96 96 -97 97 -133 0
-132 0 0 -57z"/>
<path d="M8930 3200 c13 -8 12 -10 -5 -11 -11 -1 -26 -3 -32 -3 -7 -1 -13 -5
-12 -9 0 -4 -11 -22 -25 -38 -28 -33 -32 -53 -15 -96 38 -100 159 -110 220
-17 23 35 24 60 4 108 -19 44 -53 68 -108 72 -30 3 -38 1 -27 -6z"/>
<path d="M1967 3316 c-54 -52 -104 -93 -110 -93 -7 0 -151 -1 -321 -1 -293 -2
-308 -3 -294 -19 27 -31 48 -81 48 -113 l0 -30 398 0 397 0 123 116 122 116 0
59 0 59 -132 0 -133 -1 -98 -93z"/>
<path d="M1097 3190 c-71 -13 -113 -86 -88 -152 14 -36 83 -81 123 -80 96 3
152 139 81 196 -30 24 -66 46 -73 44 -3 0 -22 -4 -43 -8z"/>
<path d="M8512 2508 c6 -18 28 -21 28 -4 0 9 -7 16 -16 16 -9 0 -14 -5 -12
-12z"/>
<path d="M1534 2504 c3 -9 6 -18 6 -20 0 -2 5 -4 10 -4 6 0 10 9 10 20 0 12
-7 20 -16 20 -11 0 -14 -5 -10 -16z"/>
<path d="M6865 3710 c10 -11 20 -20 23 -20 3 0 -3 9 -13 20 -10 11 -20 20 -23
20 -3 0 3 -9 13 -20z"/>
<path d="M1568 1898 c5 -5 16 -8 23 -6 8 3 3 7 -10 11 -17 4 -21 3 -13 -5z"/>
<path d="M2506 2292 c-3 -5 1 -9 9 -9 8 0 15 4 15 9 0 4 -4 8 -9 8 -6 0 -12
-4 -15 -8z"/>
<path d="M6331 3373 c0 -5 14 -19 32 -32 l32 -25 -29 32 c-31 33 -36 37 -35
25z"/>
<path d="M7384 2431 c4 -6 16 -16 28 -22 15 -8 18 -8 14 0 -4 6 -16 16 -28 22
-15 8 -18 8 -14 0z"/>
<path d="M3390 2925 c-15 -19 -6 -61 16 -69 20 -8 64 19 64 38 0 17 -32 46
-52 46 -9 0 -21 -7 -28 -15z"/>
<path d="M6622 2934 c-27 -19 -28 -45 -3 -68 42 -38 94 22 56 64 -22 24 -24
24 -53 4z"/>
<path d="M7095 2150 c-3 -5 -1 -10 4 -10 6 0 11 5 11 10 0 6 -2 10 -4 10 -3 0
-8 -4 -11 -10z"/>
<path d="M7175 2060 c10 -11 20 -20 23 -20 3 0 -3 9 -13 20 -10 11 -20 20 -23
20 -3 0 3 -9 13 -20z"/>
<path d="M7213 2035 c0 -8 4 -12 9 -9 5 3 6 10 3 15 -9 13 -12 11 -12 -6z"/>
<path d="M7244 1998 c-4 -7 -3 -10 1 -5 5 4 18 -1 29 -10 21 -18 21 -18 2 5
-22 26 -23 26 -32 10z"/>
<path d="M3425 2332 c-49 -10 -62 -55 -21 -73 32 -15 66 4 66 35 0 29 -18 44
-45 38z"/>
<path d="M3065 1980 c-3 -5 -2 -10 4 -10 5 0 13 5 16 10 3 6 2 10 -4 10 -5 0
-13 -4 -16 -10z"/>
<path d="M3022 1945 c-10 -12 -10 -15 2 -15 7 0 16 7 20 15 7 19 -5 19 -22 0z"/>
<path d="M2472 1665 c-42 -19 -67 -70 -58 -118 20 -108 169 -123 212 -21 40
95 -57 182 -154 139z"/>
<path d="M2730 1660 c0 -5 5 -10 11 -10 5 0 7 5 4 10 -3 6 -8 10 -11 10 -2 0
-4 -4 -4 -10z"/>
<path d="M6610 2320 c-24 -24 -25 -34 -4 -54 18 -19 28 -20 55 -6 33 18 19 80
-18 80 -7 0 -22 -9 -33 -20z"/>
<path d="M6900 2077 c0 -2 11 -16 23 -31 13 -15 24 -21 24 -14 0 8 -11 22 -24
31 -12 10 -23 16 -23 14z"/>
<path d="M6960 2010 c0 -5 5 -10 11 -10 5 0 7 5 4 10 -3 6 -8 10 -11 10 -2 0
-4 -4 -4 -10z"/>
<path d="M6991 1983 c0 -5 14 -19 32 -32 l32 -25 -29 32 c-31 33 -36 37 -35
25z"/>
<path d="M7090 1885 c15 -21 50 -55 90 -90 l24 -20 -19 25 c-11 14 -40 43 -65
65 -24 22 -38 31 -30 20z"/>
<path d="M6012 2410 c0 -19 2 -27 5 -17 2 9 2 25 0 35 -3 9 -5 1 -5 -18z"/>
<path d="M6012 2335 c0 -16 2 -22 5 -12 2 9 2 23 0 30 -3 6 -5 -1 -5 -18z"/>
<path d="M7720 2360 c0 -5 5 -10 11 -10 5 0 7 5 4 10 -3 6 -8 10 -11 10 -2 0
-4 -4 -4 -10z"/>
<path d="M7479 1652 c-39 -35 -51 -107 -25 -148 55 -83 189 -54 211 46 8 39
-12 79 -54 107 -47 32 -93 30 -132 -5z"/>
<path d="M5836 1005 c-11 -8 -15 -15 -9 -15 6 0 16 7 23 15 16 19 11 19 -14 0z"/>
</g>
</svg>
